<svg version="1.2" xmlns="http://www.w3.org/2000/svg" viewBox="0 456.00000000000006 2345.0000000000005 856.0000000000005" width="2346" height="857">
	<defs>
		<radialGradient id="g1" cx="0" cy="0" r="1" fx="-0.002" fy=".912" gradientUnits="userSpaceOnUse" gradientTransform="matrix(55.072,0,0,55.072,1971.695,544.39)">
			<stop offset="0" stop-color="#b61f7d"/>
			<stop offset=".294" stop-color="#a0247c"/>
			<stop offset=".519" stop-color="#ae217f"/>
			<stop offset=".707" stop-color="#9b2068"/>
			<stop offset=".852" stop-color="#6a2f5b"/>
		</radialGradient>
		<clipPath clipPathUnits="userSpaceOnUse" id="cp1">
			<path d="m1949.63 580.29c-13.62-3.67-21.18-12.22-26.63-21.36-5.06-8.5-6.14-18.86-2.3-27.97 1.46-3.47 4.02-8.04 6.09-11.15 6.87-10.34 1.37-17.59-1.4-24.83-1.66-4.34-2.5-8.94-2.24-13.57l0.06-1.05c0 0 8.56 2.96 17.64 10.99 8.06-9.44 11.2-16.07 22.28-19.43 3.43-1.04 15.09-1.3 18.29-0.31 6.03 1.86 11.09 5.34 22.29 20.1 9.17-8.27 18.06-11.35 18.06-11.35l0.06 1.05c0.26 4.63-0.58 9.23-2.24 13.57-2.76 7.24-8.27 14.49-1.4 24.83 2.07 3.11 4.63 7.68 6.09 11.15 3.84 9.11 2.76 19.47-2.3 27.97-5.45 9.14-15.12 17.69-28.74 21.36-13.25 3.55-19.39 10.67-21.63 15.5-2.27-4.99-8.67-11.95-21.98-15.5zm43.33-66.22c-1.37-4.63-0.56-9.66 2.32-13.53 0.62-0.85 0.59-0.85 1.26-1.63l-12.23-12.31c-2.04-1.82-4.55-3.01-7.25-3.39-3.53-0.5-7.31-0.36-10.5 0.16-2.27 0.36-4.35 1.49-5.98 3.13l-12.63 11.82c0.58 0.7 1.19 1.46 1.75 2.22 2.88 3.87 3.69 8.9 2.33 13.53-3.9 13.31-13.23 46.07 10 61.33 6.99 4.57 7.92 11.76 9.58 19.91 1.72-8.27 2.16-15.29 9.23-19.91 23.23-15.26 16.02-48.02 12.12-61.33z"/>
		</clipPath>
	</defs>
	<style>
		tspan { white-space:pre } 
		.s0 { fill: url(#g1) } 
		.s1 { fill: none;stroke: #c063a6;stroke-miterlimit:10;stroke-width: 10 } 
		.s2 { fill: #a8227a;stroke: #231f20;stroke-miterlimit:10 } 
		.t3 { font-size: 149px;fill: #2c2e35;font-weight: 400;font-family: "PlayfairDisplay-Regular", "Playfair Display" } 
		.t4 { font-size: 38px;fill: #2c2e35;font-family: "Montserrat Roman" } 
	</style>
	<g id="Layer 1">
	</g>
	<g id="LOGO">
		<g id="&lt;Group&gt;">
			<path id="&lt;Path&gt;" class="s0" d="m1972.6 493.47c0 0-45.17 37.42-0.99 101.84 0 0 43.33-59.64 0.99-101.84z"/>
			<path id="&lt;Path&gt;" class="s1" d="m86.91 1054.44h2217.34"/>
			<path id="&lt;Path&gt;" class="s2" d=""/>
			<path id="&lt;Path&gt;" class="s2" d=""/>
			<g id="&lt;Group&gt;">
				<g id="&lt;Clip Group&gt;" clip-path="url(#cp1)">
				</g>
			</g>
			<text id="THE TULIP
" style="transform: matrix(2.911,0,0,2.911,84,929.617)">
				<tspan x="0" y="0" class="t3" dx="0 2 2 2 2 2 2 2 2 2" >THE TULIP
</tspan>
			</text>
			<text id="WEDDING &amp; EVENTS
" style="transform: matrix(2.911,0,0,2.911,127.046,1215.767)">
				<tspan x="0" y="0" class="t4" dx="0 22 22 22 22 22 22 22 22 22 22 22 22 22 22 22 22" >WEDDING &amp; EVENTS
</tspan>
			</text>
		</g>
	</g>
</svg>